<?xml version="1.0" standalone="no"?>
<!DOCTYPE svg PUBLIC "-//W3C//DTD SVG 20010904//EN"
 "http://www.w3.org/TR/2001/REC-SVG-20010904/DTD/svg10.dtd">
<svg version="1.0" xmlns="http://www.w3.org/2000/svg"
 width="493.978688pt" height="314.403126pt" viewBox="0 0 493.978688 314.403126"
 preserveAspectRatio="xMidYMid meet">
<metadata>
Created by potrace 1.12, written by Peter Selinger 2001-2015
</metadata>
<g transform="translate(-9.056424,411.383670) scale(0.100000,-0.100000)"
fill="#000000" stroke="none">
<path d="M1375 4109 c-117 -17 -123 -23 -712 -623 -301 -307 -553 -568 -560
-580 -18 -32 -16 -90 5 -108 9 -9 61 -36 114 -61 400 -186 705 -483 910 -887
37 -71 74 -132 90 -143 34 -25 146 -34 219 -17 116 27 203 93 203 153 0 65
-141 325 -266 490 -121 162 -328 356 -508 478 l-65 44 90 6 c146 11 602 10
741 -1 482 -39 865 -146 1304 -364 669 -333 1224 -827 1568 -1395 82 -135 85
-137 186 -128 106 10 268 78 312 130 l24 29 -31 56 c-106 188 -286 430 -464
622 -511 553 -1253 988 -1975 1159 -325 77 -525 96 -1000 96 -368 -1 -447 -4
-833 -41 l-62 -6 456 458 c251 253 468 474 482 492 45 56 32 106 -33 130 -41
15 -131 21 -195 11z"/>
</g>
</svg>
