<svg width="315" height="301" viewBox="0 0 315 301" fill="none" xmlns="http://www.w3.org/2000/svg">
<mask id="path-1-outside-1" maskUnits="userSpaceOnUse" x="0.988297" y="164.707" width="76" height="124" fill="black">
<rect fill="white" x="0.988297" y="164.707" width="76" height="124"/>
<path d="M61.951 179.238C44.8603 225.698 37.7968 240.74 31.6224 243.7C28.5105 245.179 26.7816 244.982 21.447 242.565C18.829 241.382 16.1123 240.297 15.322 240.099C14.1859 239.853 13.9883 239.951 13.9883 240.888C13.9883 241.48 16.3593 246.215 19.2242 251.344C30.6345 271.812 33.0548 275.215 36.5125 275.659C39.0316 275.955 41.3532 274.87 42.3905 272.848C42.7857 272.059 43.6748 267.669 44.3169 263.033C45.3542 255.882 46.3915 251.64 51.4298 234.033C58.9379 207.844 62.4449 192.752 63.6304 181.458C63.9268 178.597 63.8774 178.153 63.1859 178.153C62.7413 178.153 62.198 178.646 61.951 179.238Z"/>
</mask>
<path d="M61.951 179.238C44.8603 225.698 37.7968 240.74 31.6224 243.7C28.5105 245.179 26.7816 244.982 21.447 242.565C18.829 241.382 16.1123 240.297 15.322 240.099C14.1859 239.853 13.9883 239.951 13.9883 240.888C13.9883 241.48 16.3593 246.215 19.2242 251.344C30.6345 271.812 33.0548 275.215 36.5125 275.659C39.0316 275.955 41.3532 274.87 42.3905 272.848C42.7857 272.059 43.6748 267.669 44.3169 263.033C45.3542 255.882 46.3915 251.64 51.4298 234.033C58.9379 207.844 62.4449 192.752 63.6304 181.458C63.9268 178.597 63.8774 178.153 63.1859 178.153C62.7413 178.153 62.198 178.646 61.951 179.238Z" fill="#003399"/>
<path d="M61.951 179.238C44.8603 225.698 37.7968 240.74 31.6224 243.7C28.5105 245.179 26.7816 244.982 21.447 242.565C18.829 241.382 16.1123 240.297 15.322 240.099C14.1859 239.853 13.9883 239.951 13.9883 240.888C13.9883 241.48 16.3593 246.215 19.2242 251.344C30.6345 271.812 33.0548 275.215 36.5125 275.659C39.0316 275.955 41.3532 274.87 42.3905 272.848C42.7857 272.059 43.6748 267.669 44.3169 263.033C45.3542 255.882 46.3915 251.64 51.4298 234.033C58.9379 207.844 62.4449 192.752 63.6304 181.458C63.9268 178.597 63.8774 178.153 63.1859 178.153C62.7413 178.153 62.198 178.646 61.951 179.238Z" stroke="white" stroke-width="26" mask="url(#path-1-outside-1)"/>
<mask id="path-2-outside-2" maskUnits="userSpaceOnUse" x="21.2395" y="11.4192" width="75" height="59" fill="black">
<rect fill="white" x="21.2395" y="11.4192" width="75" height="59"/>
<path d="M34.6347 25.0629C34.3877 25.2602 34.2395 25.5561 34.2395 25.7534C34.2395 25.9507 37.302 28.1208 41.0561 30.5868C49.1075 35.9134 53.553 39.5138 63.1357 48.5394C70.9895 55.9867 73.1135 57.3677 76.7688 57.417C81.4119 57.5157 83.6841 54.2112 82.6962 48.786C81.9553 44.5444 80.3746 41.6345 76.9664 38.3301C72.2244 33.6446 62.6418 29.5511 49.3051 26.4932C43.674 25.1616 35.2768 24.3724 34.6347 25.0629Z"/>
</mask>
<path d="M34.6347 25.0629C34.3877 25.2602 34.2395 25.5561 34.2395 25.7534C34.2395 25.9507 37.302 28.1208 41.0561 30.5868C49.1075 35.9134 53.553 39.5138 63.1357 48.5394C70.9895 55.9867 73.1135 57.3677 76.7688 57.417C81.4119 57.5157 83.6841 54.2112 82.6962 48.786C81.9553 44.5444 80.3746 41.6345 76.9664 38.3301C72.2244 33.6446 62.6418 29.5511 49.3051 26.4932C43.674 25.1616 35.2768 24.3724 34.6347 25.0629Z" fill="#003399"/>
<path d="M34.6347 25.0629C34.3877 25.2602 34.2395 25.5561 34.2395 25.7534C34.2395 25.9507 37.302 28.1208 41.0561 30.5868C49.1075 35.9134 53.553 39.5138 63.1357 48.5394C70.9895 55.9867 73.1135 57.3677 76.7688 57.417C81.4119 57.5157 83.6841 54.2112 82.6962 48.786C81.9553 44.5444 80.3746 41.6345 76.9664 38.3301C72.2244 33.6446 62.6418 29.5511 49.3051 26.4932C43.674 25.1616 35.2768 24.3724 34.6347 25.0629Z" stroke="white" stroke-width="26" mask="url(#path-2-outside-2)"/>
<mask id="path-3-outside-3" maskUnits="userSpaceOnUse" x="47.6644" y="69.6434" width="268" height="231" fill="black">
<rect fill="white" x="47.6644" y="69.6434" width="268" height="231"/>
<path d="M237.205 83.7036C236.267 84.0489 233.994 84.8873 232.068 85.5778C225.004 88.1424 215.027 90.3619 199.467 92.7786C172.201 97.1188 147.553 99.8807 144.243 99.0422C143.502 98.8943 141.23 97.316 139.106 95.5405C135.303 92.384 131.302 90.3619 128.832 90.3619C128.141 90.3619 127.597 90.5591 127.597 90.8057C127.597 91.0523 128.289 93.3211 129.178 95.8857C130.709 100.374 130.758 100.67 130.758 108.61C130.709 117.784 129.771 125.083 126.609 140.669C124.633 150.434 120.929 164.737 120.188 165.477C119.694 166.019 102.702 168.436 91.8351 169.57C77.6586 171.001 74.2998 170.31 65.952 164.244C63.6798 162.616 61.6546 161.482 61.4076 161.679C61.21 161.926 60.9137 162.912 60.7161 163.899C59.7282 169.472 73.1637 184.071 79.2887 184.071C79.9802 184.071 81.3633 183.725 82.3512 183.331C86.451 181.605 115.891 174.7 116.533 175.292C116.631 175.39 115.545 178.596 114.063 182.394C107.296 199.853 102.307 208.731 96.2806 213.959C92.5266 217.165 91.7857 218.841 92.4772 222.639C93.1193 226.437 94.7988 229.889 96.2806 230.53C97.2191 230.974 98.1576 230.777 101.27 229.544C108.284 226.831 110.259 226.387 117.521 226.141C127.4 225.746 138.316 226.979 154.765 230.234C173.14 233.933 192.157 239.161 209 245.129C216.657 247.842 216.311 247.053 212.853 254.352C208.803 262.737 206.778 264.463 200.85 264.463C197.146 264.463 193.095 263.624 187.217 261.701C184.945 260.912 183.167 260.566 182.87 260.862C182.623 261.109 183.957 263.23 186.13 265.942C189.687 270.431 190.724 272.206 195.071 281.626C197.244 286.46 198.529 287.643 201.443 287.643C205.296 287.643 208.062 286.262 211.865 282.514C215.965 278.42 219.62 272.502 225.449 260.616C227.573 256.226 229.549 252.626 229.746 252.626C230.586 252.626 249.307 260.32 254.889 262.983C258.198 264.561 264.224 267.866 268.275 270.332C276.326 275.165 279.339 276.3 281.661 275.313C286.008 273.538 284.032 266.09 277.314 258.939C272.226 253.514 268.275 251.689 246.393 244.685C239.625 242.515 233.797 240.69 233.5 240.542C233.105 240.444 233.747 237.139 235.328 230.58C237.946 219.779 240.268 207.843 244.861 181.506C246.59 171.79 248.121 163.701 248.319 163.504C249.455 162.37 273.708 163.652 287.44 165.575C296.183 166.808 298.801 166.562 300.925 164.293C304.728 160.2 298.011 153.837 287.539 151.716C283.686 150.927 282.747 150.878 277.66 151.47C267.484 152.653 263.73 152.949 256.667 152.949C252.765 152.999 249.603 152.9 249.603 152.801C249.603 151.815 252.172 121.976 252.567 118.474C252.962 115.219 253.851 111.619 255.58 106.638C256.914 102.692 258 98.845 258 98.1052C258 96.0337 254.296 92.4333 247.529 87.8465C240.811 83.309 239.625 82.8158 237.205 83.7036ZM235.081 96.8228C236.365 97.1681 237.699 97.9079 238.242 98.6477C240.119 101.015 240.366 103.234 239.724 113.789C238.736 131.446 236.662 153.295 235.97 153.985C235.279 154.577 190.428 157.635 189.884 157.142C189.736 157.043 190.131 153.788 190.724 149.892C192.651 137.414 194.676 123.259 195.219 118.77C196.01 112.309 195.713 111.816 187.168 105.454C184.747 103.678 182.87 102.199 182.969 102.149C183.414 102.051 231.179 96.3789 231.969 96.3296C232.463 96.3296 233.846 96.5269 235.081 96.8228ZM172.102 105.158C175.362 107.279 178.82 111.126 180.351 114.43C181.636 117.094 181.685 117.587 181.636 124.64C181.586 131.544 180.302 143.529 178.326 155.218L177.733 158.671L166.866 160.2C152.838 162.222 132.586 164.589 132.24 164.194C132.092 164.047 133.722 156.846 135.896 148.215C139.452 134.208 141.082 126.02 143.058 112.556C143.7 108.364 143.7 108.364 145.429 107.772C149.677 106.391 163.112 104.024 168.546 103.728C169.188 103.728 170.818 104.369 172.102 105.158ZM235.279 164.047C235.279 167.006 231.08 194.181 229.055 204.292C227.375 212.479 222.238 232.799 220.707 237.189C220.559 237.633 219.966 237.633 218.139 237.041C209.939 234.476 201.986 232.355 187.612 228.903C178.672 226.733 171.263 224.908 171.213 224.809C171.114 224.711 172.152 221.702 173.485 218.052C178.227 205.081 181.734 192.702 185.883 173.713C186.773 169.768 187.612 166.414 187.81 166.167C188.551 165.378 215.224 163.553 228.512 163.455C233.945 163.356 235.279 163.504 235.279 164.047ZM175.165 175.538C172.942 187.227 170.373 198.373 168.249 205.278C166.175 212.233 162.668 222.146 162.124 222.738C161.828 223.034 157.728 222.639 151.208 221.653C145.429 220.765 136.241 219.532 130.808 218.841C118.657 217.313 115.742 216.77 113.767 215.586C111.791 214.353 111.84 214.008 116.335 203.306C118.212 198.817 121.67 190.384 123.942 184.564C126.263 178.744 128.437 173.713 128.881 173.417C130.363 172.283 175.115 165.921 176.548 166.611C176.696 166.71 176.103 170.705 175.165 175.538Z"/>
</mask>
<path d="M237.205 83.7036C236.267 84.0489 233.994 84.8873 232.068 85.5778C225.004 88.1424 215.027 90.3619 199.467 92.7786C172.201 97.1188 147.553 99.8807 144.243 99.0422C143.502 98.8943 141.23 97.316 139.106 95.5405C135.303 92.384 131.302 90.3619 128.832 90.3619C128.141 90.3619 127.597 90.5591 127.597 90.8057C127.597 91.0523 128.289 93.3211 129.178 95.8857C130.709 100.374 130.758 100.67 130.758 108.61C130.709 117.784 129.771 125.083 126.609 140.669C124.633 150.434 120.929 164.737 120.188 165.477C119.694 166.019 102.702 168.436 91.8351 169.57C77.6586 171.001 74.2998 170.31 65.952 164.244C63.6798 162.616 61.6546 161.482 61.4076 161.679C61.21 161.926 60.9137 162.912 60.7161 163.899C59.7282 169.472 73.1637 184.071 79.2887 184.071C79.9802 184.071 81.3633 183.725 82.3512 183.331C86.451 181.605 115.891 174.7 116.533 175.292C116.631 175.39 115.545 178.596 114.063 182.394C107.296 199.853 102.307 208.731 96.2806 213.959C92.5266 217.165 91.7857 218.841 92.4772 222.639C93.1193 226.437 94.7988 229.889 96.2806 230.53C97.2191 230.974 98.1576 230.777 101.27 229.544C108.284 226.831 110.259 226.387 117.521 226.141C127.4 225.746 138.316 226.979 154.765 230.234C173.14 233.933 192.157 239.161 209 245.129C216.657 247.842 216.311 247.053 212.853 254.352C208.803 262.737 206.778 264.463 200.85 264.463C197.146 264.463 193.095 263.624 187.217 261.701C184.945 260.912 183.167 260.566 182.87 260.862C182.623 261.109 183.957 263.23 186.13 265.942C189.687 270.431 190.724 272.206 195.071 281.626C197.244 286.46 198.529 287.643 201.443 287.643C205.296 287.643 208.062 286.262 211.865 282.514C215.965 278.42 219.62 272.502 225.449 260.616C227.573 256.226 229.549 252.626 229.746 252.626C230.586 252.626 249.307 260.32 254.889 262.983C258.198 264.561 264.224 267.866 268.275 270.332C276.326 275.165 279.339 276.3 281.661 275.313C286.008 273.538 284.032 266.09 277.314 258.939C272.226 253.514 268.275 251.689 246.393 244.685C239.625 242.515 233.797 240.69 233.5 240.542C233.105 240.444 233.747 237.139 235.328 230.58C237.946 219.779 240.268 207.843 244.861 181.506C246.59 171.79 248.121 163.701 248.319 163.504C249.455 162.37 273.708 163.652 287.44 165.575C296.183 166.808 298.801 166.562 300.925 164.293C304.728 160.2 298.011 153.837 287.539 151.716C283.686 150.927 282.747 150.878 277.66 151.47C267.484 152.653 263.73 152.949 256.667 152.949C252.765 152.999 249.603 152.9 249.603 152.801C249.603 151.815 252.172 121.976 252.567 118.474C252.962 115.219 253.851 111.619 255.58 106.638C256.914 102.692 258 98.845 258 98.1052C258 96.0337 254.296 92.4333 247.529 87.8465C240.811 83.309 239.625 82.8158 237.205 83.7036ZM235.081 96.8228C236.365 97.1681 237.699 97.9079 238.242 98.6477C240.119 101.015 240.366 103.234 239.724 113.789C238.736 131.446 236.662 153.295 235.97 153.985C235.279 154.577 190.428 157.635 189.884 157.142C189.736 157.043 190.131 153.788 190.724 149.892C192.651 137.414 194.676 123.259 195.219 118.77C196.01 112.309 195.713 111.816 187.168 105.454C184.747 103.678 182.87 102.199 182.969 102.149C183.414 102.051 231.179 96.3789 231.969 96.3296C232.463 96.3296 233.846 96.5269 235.081 96.8228ZM172.102 105.158C175.362 107.279 178.82 111.126 180.351 114.43C181.636 117.094 181.685 117.587 181.636 124.64C181.586 131.544 180.302 143.529 178.326 155.218L177.733 158.671L166.866 160.2C152.838 162.222 132.586 164.589 132.24 164.194C132.092 164.047 133.722 156.846 135.896 148.215C139.452 134.208 141.082 126.02 143.058 112.556C143.7 108.364 143.7 108.364 145.429 107.772C149.677 106.391 163.112 104.024 168.546 103.728C169.188 103.728 170.818 104.369 172.102 105.158ZM235.279 164.047C235.279 167.006 231.08 194.181 229.055 204.292C227.375 212.479 222.238 232.799 220.707 237.189C220.559 237.633 219.966 237.633 218.139 237.041C209.939 234.476 201.986 232.355 187.612 228.903C178.672 226.733 171.263 224.908 171.213 224.809C171.114 224.711 172.152 221.702 173.485 218.052C178.227 205.081 181.734 192.702 185.883 173.713C186.773 169.768 187.612 166.414 187.81 166.167C188.551 165.378 215.224 163.553 228.512 163.455C233.945 163.356 235.279 163.504 235.279 164.047ZM175.165 175.538C172.942 187.227 170.373 198.373 168.249 205.278C166.175 212.233 162.668 222.146 162.124 222.738C161.828 223.034 157.728 222.639 151.208 221.653C145.429 220.765 136.241 219.532 130.808 218.841C118.657 217.313 115.742 216.77 113.767 215.586C111.791 214.353 111.84 214.008 116.335 203.306C118.212 198.817 121.67 190.384 123.942 184.564C126.263 178.744 128.437 173.713 128.881 173.417C130.363 172.283 175.115 165.921 176.548 166.611C176.696 166.71 176.103 170.705 175.165 175.538Z" fill="#003399"/>
<path d="M237.205 83.7036C236.267 84.0489 233.994 84.8873 232.068 85.5778C225.004 88.1424 215.027 90.3619 199.467 92.7786C172.201 97.1188 147.553 99.8807 144.243 99.0422C143.502 98.8943 141.23 97.316 139.106 95.5405C135.303 92.384 131.302 90.3619 128.832 90.3619C128.141 90.3619 127.597 90.5591 127.597 90.8057C127.597 91.0523 128.289 93.3211 129.178 95.8857C130.709 100.374 130.758 100.67 130.758 108.61C130.709 117.784 129.771 125.083 126.609 140.669C124.633 150.434 120.929 164.737 120.188 165.477C119.694 166.019 102.702 168.436 91.8351 169.57C77.6586 171.001 74.2998 170.31 65.952 164.244C63.6798 162.616 61.6546 161.482 61.4076 161.679C61.21 161.926 60.9137 162.912 60.7161 163.899C59.7282 169.472 73.1637 184.071 79.2887 184.071C79.9802 184.071 81.3633 183.725 82.3512 183.331C86.451 181.605 115.891 174.7 116.533 175.292C116.631 175.39 115.545 178.596 114.063 182.394C107.296 199.853 102.307 208.731 96.2806 213.959C92.5266 217.165 91.7857 218.841 92.4772 222.639C93.1193 226.437 94.7988 229.889 96.2806 230.53C97.2191 230.974 98.1576 230.777 101.27 229.544C108.284 226.831 110.259 226.387 117.521 226.141C127.4 225.746 138.316 226.979 154.765 230.234C173.14 233.933 192.157 239.161 209 245.129C216.657 247.842 216.311 247.053 212.853 254.352C208.803 262.737 206.778 264.463 200.85 264.463C197.146 264.463 193.095 263.624 187.217 261.701C184.945 260.912 183.167 260.566 182.87 260.862C182.623 261.109 183.957 263.23 186.13 265.942C189.687 270.431 190.724 272.206 195.071 281.626C197.244 286.46 198.529 287.643 201.443 287.643C205.296 287.643 208.062 286.262 211.865 282.514C215.965 278.42 219.62 272.502 225.449 260.616C227.573 256.226 229.549 252.626 229.746 252.626C230.586 252.626 249.307 260.32 254.889 262.983C258.198 264.561 264.224 267.866 268.275 270.332C276.326 275.165 279.339 276.3 281.661 275.313C286.008 273.538 284.032 266.09 277.314 258.939C272.226 253.514 268.275 251.689 246.393 244.685C239.625 242.515 233.797 240.69 233.5 240.542C233.105 240.444 233.747 237.139 235.328 230.58C237.946 219.779 240.268 207.843 244.861 181.506C246.59 171.79 248.121 163.701 248.319 163.504C249.455 162.37 273.708 163.652 287.44 165.575C296.183 166.808 298.801 166.562 300.925 164.293C304.728 160.2 298.011 153.837 287.539 151.716C283.686 150.927 282.747 150.878 277.66 151.47C267.484 152.653 263.73 152.949 256.667 152.949C252.765 152.999 249.603 152.9 249.603 152.801C249.603 151.815 252.172 121.976 252.567 118.474C252.962 115.219 253.851 111.619 255.58 106.638C256.914 102.692 258 98.845 258 98.1052C258 96.0337 254.296 92.4333 247.529 87.8465C240.811 83.309 239.625 82.8158 237.205 83.7036ZM235.081 96.8228C236.365 97.1681 237.699 97.9079 238.242 98.6477C240.119 101.015 240.366 103.234 239.724 113.789C238.736 131.446 236.662 153.295 235.97 153.985C235.279 154.577 190.428 157.635 189.884 157.142C189.736 157.043 190.131 153.788 190.724 149.892C192.651 137.414 194.676 123.259 195.219 118.77C196.01 112.309 195.713 111.816 187.168 105.454C184.747 103.678 182.87 102.199 182.969 102.149C183.414 102.051 231.179 96.3789 231.969 96.3296C232.463 96.3296 233.846 96.5269 235.081 96.8228ZM172.102 105.158C175.362 107.279 178.82 111.126 180.351 114.43C181.636 117.094 181.685 117.587 181.636 124.64C181.586 131.544 180.302 143.529 178.326 155.218L177.733 158.671L166.866 160.2C152.838 162.222 132.586 164.589 132.24 164.194C132.092 164.047 133.722 156.846 135.896 148.215C139.452 134.208 141.082 126.02 143.058 112.556C143.7 108.364 143.7 108.364 145.429 107.772C149.677 106.391 163.112 104.024 168.546 103.728C169.188 103.728 170.818 104.369 172.102 105.158ZM235.279 164.047C235.279 167.006 231.08 194.181 229.055 204.292C227.375 212.479 222.238 232.799 220.707 237.189C220.559 237.633 219.966 237.633 218.139 237.041C209.939 234.476 201.986 232.355 187.612 228.903C178.672 226.733 171.263 224.908 171.213 224.809C171.114 224.711 172.152 221.702 173.485 218.052C178.227 205.081 181.734 192.702 185.883 173.713C186.773 169.768 187.612 166.414 187.81 166.167C188.551 165.378 215.224 163.553 228.512 163.455C233.945 163.356 235.279 163.504 235.279 164.047ZM175.165 175.538C172.942 187.227 170.373 198.373 168.249 205.278C166.175 212.233 162.668 222.146 162.124 222.738C161.828 223.034 157.728 222.639 151.208 221.653C145.429 220.765 136.241 219.532 130.808 218.841C118.657 217.313 115.742 216.77 113.767 215.586C111.791 214.353 111.84 214.008 116.335 203.306C118.212 198.817 121.67 190.384 123.942 184.564C126.263 178.744 128.437 173.713 128.881 173.417C130.363 172.283 175.115 165.921 176.548 166.611C176.696 166.71 176.103 170.705 175.165 175.538Z" stroke="white" stroke-width="26" mask="url(#path-3-outside-3)"/>
<mask id="path-4-outside-4" maskUnits="userSpaceOnUse" x="77.4628" y="-0.456299" width="199" height="122" fill="black">
<rect fill="white" x="77.4628" y="-0.456299" width="199" height="122"/>
<path d="M130.461 13.7689C129.424 14.2128 128.584 14.8539 128.584 15.1992C128.584 15.5444 129.77 16.6295 131.202 17.5666C135.845 20.5258 138.463 23.6823 139.155 27.184C140.291 33.3491 129.671 56.1351 115.988 76.8003C111 84.3464 106.406 89.9196 96.8232 100.375C89.2163 108.612 88.5248 110.289 94.2546 106.886C104.726 100.573 123.299 81.0912 136.883 62.1522L139.945 57.9106L142.267 58.6011C148.145 60.426 151.652 60.8699 158.962 60.8699C173.386 60.8205 188.254 58.6998 225.893 51.4003C232.808 50.0687 243.131 48.0466 248.812 46.9615C254.443 45.8765 260.074 44.5448 261.259 44.0516C263.235 43.1638 263.433 42.9172 263.433 41.339C263.433 38.1332 259.382 35.1246 252.764 33.3984C247.429 32.0174 245.651 32.3627 233.796 37.0974C220.41 42.424 204.554 47.3068 191.069 50.1673C178.374 52.88 169.632 53.9157 159.16 53.9157C152.393 53.9157 151.01 53.7677 148.046 52.7813C146.218 52.1402 144.638 51.4003 144.539 51.1044C144.44 50.8085 147.503 45.8765 151.306 40.106C159.061 28.4664 159.901 26.8881 159.259 25.1126C158.122 22.104 149.429 16.6788 141.723 14.2128C137.327 12.7332 133.277 12.6345 130.461 13.7689Z"/>
</mask>
<path d="M130.461 13.7689C129.424 14.2128 128.584 14.8539 128.584 15.1992C128.584 15.5444 129.77 16.6295 131.202 17.5666C135.845 20.5258 138.463 23.6823 139.155 27.184C140.291 33.3491 129.671 56.1351 115.988 76.8003C111 84.3464 106.406 89.9196 96.8232 100.375C89.2163 108.612 88.5248 110.289 94.2546 106.886C104.726 100.573 123.299 81.0912 136.883 62.1522L139.945 57.9106L142.267 58.6011C148.145 60.426 151.652 60.8699 158.962 60.8699C173.386 60.8205 188.254 58.6998 225.893 51.4003C232.808 50.0687 243.131 48.0466 248.812 46.9615C254.443 45.8765 260.074 44.5448 261.259 44.0516C263.235 43.1638 263.433 42.9172 263.433 41.339C263.433 38.1332 259.382 35.1246 252.764 33.3984C247.429 32.0174 245.651 32.3627 233.796 37.0974C220.41 42.424 204.554 47.3068 191.069 50.1673C178.374 52.88 169.632 53.9157 159.16 53.9157C152.393 53.9157 151.01 53.7677 148.046 52.7813C146.218 52.1402 144.638 51.4003 144.539 51.1044C144.44 50.8085 147.503 45.8765 151.306 40.106C159.061 28.4664 159.901 26.8881 159.259 25.1126C158.122 22.104 149.429 16.6788 141.723 14.2128C137.327 12.7332 133.277 12.6345 130.461 13.7689Z" fill="#003399"/>
<path d="M130.461 13.7689C129.424 14.2128 128.584 14.8539 128.584 15.1992C128.584 15.5444 129.77 16.6295 131.202 17.5666C135.845 20.5258 138.463 23.6823 139.155 27.184C140.291 33.3491 129.671 56.1351 115.988 76.8003C111 84.3464 106.406 89.9196 96.8232 100.375C89.2163 108.612 88.5248 110.289 94.2546 106.886C104.726 100.573 123.299 81.0912 136.883 62.1522L139.945 57.9106L142.267 58.6011C148.145 60.426 151.652 60.8699 158.962 60.8699C173.386 60.8205 188.254 58.6998 225.893 51.4003C232.808 50.0687 243.131 48.0466 248.812 46.9615C254.443 45.8765 260.074 44.5448 261.259 44.0516C263.235 43.1638 263.433 42.9172 263.433 41.339C263.433 38.1332 259.382 35.1246 252.764 33.3984C247.429 32.0174 245.651 32.3627 233.796 37.0974C220.41 42.424 204.554 47.3068 191.069 50.1673C178.374 52.88 169.632 53.9157 159.16 53.9157C152.393 53.9157 151.01 53.7677 148.046 52.7813C146.218 52.1402 144.638 51.4003 144.539 51.1044C144.44 50.8085 147.503 45.8765 151.306 40.106C159.061 28.4664 159.901 26.8881 159.259 25.1126C158.122 22.104 149.429 16.6788 141.723 14.2128C137.327 12.7332 133.277 12.6345 130.461 13.7689Z" stroke="white" stroke-width="26" mask="url(#path-4-outside-4)"/>
<mask id="path-5-outside-5" maskUnits="userSpaceOnUse" x="0" y="88.7928" width="76" height="56" fill="black">
<rect fill="white" y="88.7928" width="76" height="56"/>
<path d="M13 102.398C13 102.793 16.3095 105.012 20.5575 107.429C30.7823 113.347 36.7591 117.441 44.3659 123.704C52.2197 130.165 54.6895 131.793 56.7641 131.793C58.8387 131.793 61.1603 129.869 61.9506 127.502C62.7903 124.839 62.247 119.956 60.7157 116.799C56.9123 109.106 49.0091 106.097 24.6079 103.187C20.0141 102.645 15.4698 102.102 14.63 101.954C13.3952 101.707 13 101.855 13 102.398Z"/>
</mask>
<path d="M13 102.398C13 102.793 16.3095 105.012 20.5575 107.429C30.7823 113.347 36.7591 117.441 44.3659 123.704C52.2197 130.165 54.6895 131.793 56.7641 131.793C58.8387 131.793 61.1603 129.869 61.9506 127.502C62.7903 124.839 62.247 119.956 60.7157 116.799C56.9123 109.106 49.0091 106.097 24.6079 103.187C20.0141 102.645 15.4698 102.102 14.63 101.954C13.3952 101.707 13 101.855 13 102.398Z" fill="#003399"/>
<path d="M13 102.398C13 102.793 16.3095 105.012 20.5575 107.429C30.7823 113.347 36.7591 117.441 44.3659 123.704C52.2197 130.165 54.6895 131.793 56.7641 131.793C58.8387 131.793 61.1603 129.869 61.9506 127.502C62.7903 124.839 62.247 119.956 60.7157 116.799C56.9123 109.106 49.0091 106.097 24.6079 103.187C20.0141 102.645 15.4698 102.102 14.63 101.954C13.3952 101.707 13 101.855 13 102.398Z" stroke="white" stroke-width="26" mask="url(#path-5-outside-5)"/>
</svg>
