<svg width="353" height="353" viewBox="0 0 353 353" fill="none" xmlns="http://www.w3.org/2000/svg">
<circle cx="176.5" cy="176.5" r="176.5" fill="white"/>
<path d="M149.074 28.2151C147.911 28.9678 145.105 29.6521 141.752 29.9258C137.783 30.2679 135.114 31.0206 131.761 32.5945C129.16 33.8262 125.944 35.0579 124.507 35.3316C117.185 36.7002 102.267 44.2272 87.2114 54.1493C76.5359 61.1973 77.2203 60.7868 78.1099 59.1445C79.547 56.4758 78.8626 56.8864 72.909 61.95C56.2115 76.1146 45.8098 90.895 38.2822 111.013C33.971 122.646 33.0814 127.435 29.5229 158.228C26.7856 181.63 26.375 192.1 27.8121 200.653C29.9335 213.039 35.2712 221.113 48.4786 231.651C53.2005 235.483 53.3373 235.483 59.7016 236.304C69.419 237.467 71.1298 237.057 76.1253 232.746C79.4785 229.804 80.9156 227.888 83.4476 222.824C86.1165 217.418 86.6639 215.707 86.9377 211.328C87.3483 204.896 86.1165 200.995 81.6684 193.879C76.1253 185.052 74.7567 182.383 74.7567 180.125C74.7567 178.62 74.0724 177.114 72.6353 175.54C71.0613 173.693 70.6507 172.735 70.9929 171.298C71.1982 170.271 70.5823 165.892 69.6243 161.444C66.9554 149.127 67.5713 142.695 71.8141 137.152C73.388 135.099 73.7302 133.868 73.7986 130.857C73.7986 126.477 75.2357 123.33 78.1099 121.345L80.0944 119.908L79.7523 122.714L79.3417 125.519L81.5999 125.041C83.6529 124.63 83.7898 124.698 83.3107 125.793C80.9156 131.883 80.0944 135.373 79.7523 140.779C79.4785 145.979 79.6838 147.28 80.7787 149.264C81.4631 150.564 82.3527 151.727 82.6949 151.864C83.1054 152.001 83.7213 149.332 84.1319 145.911C84.8847 140.231 85.09 139.547 87.2798 137.494C89.8118 135.099 92.1385 130.994 95.2864 122.988C99.0502 113.476 101.103 110.123 106.03 105.539C110.205 101.57 122.18 91.9214 127.929 87.8842C129.845 86.5156 130.05 86.0366 129.708 84.0522C129.366 81.9994 129.571 81.7257 131.282 81.3151C132.377 81.0414 135.867 79.2623 139.083 77.4832C146.063 73.4459 148.322 72.8985 163.514 72.0089C170.015 71.6668 176.653 70.9141 178.226 70.3667C180.416 69.614 181.99 69.5455 184.249 70.0245C185.959 70.3667 191.845 70.8457 197.319 71.0509L207.242 71.5299L208.747 69.614C211.895 65.6451 210.869 64.8924 199.988 62.7712C191.981 61.2658 197.388 60.7183 208.542 62.0185C222.639 63.5923 227.224 64.6871 231.398 67.219C235.231 69.614 240.021 70.5035 241.732 69.2718C242.416 68.7244 242.485 68.3823 242.005 68.177C241.595 67.9717 237.9 65.6451 233.794 62.9765C229.688 60.3078 225.034 57.5707 223.46 56.8179C220.107 55.3125 193.761 48.675 193.008 49.154C192.734 49.3593 192.46 50.112 192.46 50.8647C192.46 52.028 191.913 52.1649 185.959 52.1649C174.121 52.1649 160.913 54.0808 150.717 57.3654C147.911 58.2549 145.516 58.8024 145.379 58.6655C144.9 58.1865 151.606 54.2177 154.138 53.5334C155.438 53.1228 159.271 52.3701 162.692 51.7543C166.046 51.2069 168.988 50.591 169.125 50.3857C170.699 48.8119 159.887 49.0172 152.77 50.7279C146.816 52.1649 142.505 52.4386 140.178 51.549C139.152 51.1384 139.425 50.9332 141.684 50.2489C143.189 49.7699 145.174 48.8119 146.063 48.0592L147.637 46.7591L145.242 46.6906C142.094 46.6906 132.787 48.9487 128.613 50.7279C124.712 52.4386 123.344 52.507 123.344 51.2069C123.344 49.7015 131.145 46.2116 137.92 44.6378C145.174 42.9955 147.09 42.0375 150.306 38.6846C153.317 35.4685 153.454 34.5105 150.717 34.921C147.021 35.4685 148.937 32.1155 152.77 31.2944C155.233 30.7469 155.302 30.2679 153.249 28.352C151.401 26.5728 151.606 26.5728 149.074 28.2151ZM185.959 61.0605C187.191 61.5395 187.054 61.7448 184.728 62.7027C182.196 63.7976 179.458 63.3186 179.458 61.7448C179.458 60.5815 183.701 60.1025 185.959 61.0605ZM61.2755 79.8097C61.6177 80.6308 57.9223 84.1207 57.3064 83.5048C56.8958 83.1627 59.77 78.8517 60.3859 78.8517C60.6596 78.8517 61.0702 79.2623 61.2755 79.8097Z" fill="#003399"/>
<path d="M196.566 28.0783C196.566 29.1732 199.783 30.4049 201.425 29.9259C202.931 29.4469 202.931 29.3784 201.699 28.4889C200.33 27.4625 196.566 27.1887 196.566 28.0783Z" fill="#003399"/>
<path d="M192.666 35.4001C193.487 37.795 222.571 42.2429 222.571 39.9163C222.571 38.8899 207.995 36.0159 198.277 35.1948C194.308 34.8527 192.529 34.9211 192.666 35.4001Z" fill="#003399"/>
<path d="M245.838 73.3775C245.838 73.7196 247.206 74.9513 248.917 76.1146C251.449 77.8253 251.997 78.6465 251.997 80.2887C251.997 81.452 252.612 83.2995 253.434 84.3944C255.692 87.6105 253.023 86.7894 245.906 81.9994C240.705 78.5096 239.2 78.8517 243.443 82.6153C246.727 85.6261 246.796 85.7629 245.975 87.8842C245.222 89.937 245.29 90.1423 247.685 92.1267C251.791 95.685 257.608 101.501 257.266 101.843C257.129 101.98 254.871 100.68 252.27 98.9695C238.584 89.8002 224.897 83.0943 210.253 78.3043C193.829 72.9669 186.233 72.5564 168.167 76.0462C159.065 77.7569 155.986 78.6465 153.933 80.015C152.564 80.973 151.538 81.931 151.675 82.0678C151.88 82.2731 154.686 81.7941 158.039 81.0414C169.193 78.4412 174.257 77.8253 184.249 77.8253C199.441 77.8253 208.131 79.9466 223.597 87.3368C233.451 92.0583 250.902 101.98 254.118 104.649C256.103 106.36 260.208 111.492 267.257 121.209C280.396 139.205 286.35 159.391 284.228 179.03C282.312 196.616 275.674 212.765 263.972 228.298C241.8 257.791 203.957 277.224 168.714 277.292C159.544 277.292 146.953 274.966 144.489 272.776C143.6 271.955 143.052 272.024 140.52 272.982C137.304 274.213 135.046 273.871 125.807 270.723C123.138 269.765 120.743 269.355 120.47 269.629C120.127 269.971 121.975 271.681 124.644 273.529C132.171 278.661 131.35 278.866 119.238 275.034C115.679 273.94 112.258 272.845 111.71 272.639C111.026 272.366 111.094 272.708 112.052 273.803C114.037 276.061 118.622 278.182 126.081 280.303C129.639 281.33 132.856 282.425 133.198 282.767C134.703 284.272 122.112 281.398 112.258 278.045C108.631 276.813 106.236 276.334 106.236 276.745C106.236 277.156 107.604 278.866 109.315 280.509C111.026 282.151 112.326 283.451 112.189 283.451C112.052 283.451 109.794 282.698 107.194 281.809C97.271 278.319 94.5337 278.866 99.2555 283.314C109.178 292.62 111.368 294.536 115.132 296.863C117.459 298.3 119.032 299.6 118.622 299.737C116.295 300.49 119.922 302.269 128.134 304.321C130.598 304.937 134.635 306.648 137.099 308.153C139.562 309.59 142.299 310.822 143.258 310.822C145.31 310.822 154.959 313.559 155.849 314.449C156.26 314.859 155.781 314.928 154.48 314.654C147.706 313.354 140.452 312.807 138.057 313.491C133.403 314.723 124.233 312.807 116.021 308.838C112.052 306.922 108.699 305.348 108.562 305.348C108.015 305.348 108.289 308.222 108.973 309.522C109.383 310.206 109.452 310.822 109.178 310.822C108.904 310.754 105.278 309.043 101.103 306.853C95.0127 303.706 93.5756 302.679 93.7125 301.516C93.8493 300.421 92.686 299.6 88.0326 297.273C81.5999 294.057 81.2578 294.605 86.5271 299.874C91.1805 304.527 105.346 313.422 115.474 318.075C138.604 328.682 171.931 330.735 206.352 323.823C215.112 322.044 217.028 321.36 225.992 316.912C231.467 314.244 239.337 310.754 243.443 309.18C247.617 307.606 252.27 305.485 253.844 304.458C263.835 298.163 284.776 278.593 294.014 267.028C312.217 244.173 322.756 220.224 325.493 195.384C326.451 186.899 326.177 185.052 323.577 182.93C322.208 181.767 320.224 175.472 318.308 165.892C317.486 161.649 316.528 158.228 316.118 158.228C315.639 158.228 315.57 162.06 315.844 169.655C316.323 180.878 316.255 181.288 314.202 190.047C312.08 198.874 309.275 206.128 308.043 206.128C307.632 206.128 307.564 205.17 307.769 203.869C310.643 186.968 309.822 164.044 305.716 145.637C300.72 123.535 289.566 101.091 277.043 87.8842C271.5 82.0678 268.626 80.2203 259.935 77.0042C256.513 75.7041 252.612 74.1986 251.312 73.7196C248.507 72.5564 245.838 72.4195 245.838 73.3775ZM285.118 110.876C289.019 116.008 291.961 121.072 294.014 126.067C295.725 130.241 298.12 139.684 297.641 140.232C297.094 140.711 292.645 134.141 290.524 129.83C289.361 127.572 287.787 123.398 286.897 120.593C286.076 117.787 284.502 113.545 283.476 111.15C282.381 108.823 281.628 106.907 281.765 106.907C281.902 106.907 283.407 108.686 285.118 110.876ZM301.336 148.853C302.842 152.07 302.979 153.37 302.979 163.155C302.979 173.282 302.568 176.088 301.336 174.103C300.72 173.077 298.736 158.091 298.052 149.332C297.641 144.132 297.709 143.584 298.668 144.406C299.283 144.885 300.447 146.869 301.336 148.853ZM132.445 290.088C137.509 291.662 139.767 292.757 139.767 293.441C139.767 294.194 139.357 294.399 138.262 293.989C136.072 293.373 121.701 287.488 121.291 287.078C120.743 286.53 124.644 287.625 132.445 290.088Z" fill="#003399"/>
<path d="M273.211 76.3199C273.211 76.7989 279.027 80.9046 279.643 80.9046C279.849 80.9046 280.054 80.2887 280.054 79.536C280.054 78.6465 279.37 77.8937 278.343 77.4832C275.674 76.4568 273.211 75.9093 273.211 76.3199Z" fill="#003399"/>
<path d="M294.835 84.4628C296.957 87.1999 300.173 91.374 301.884 93.7006C303.595 96.0271 305.237 97.9431 305.579 98.0115C306.674 98.0115 305.99 93.0847 304.279 88.5001C302.568 83.9154 301.268 82.2731 301.268 84.7365C301.268 85.763 301.131 85.763 299.762 84.7365C296.272 82.2047 292.098 79.536 291.482 79.536C291.208 79.536 292.645 81.7941 294.835 84.4628Z" fill="#003399"/>
<path d="M293.33 90.5529C292.988 91.2372 295.999 96.3008 297.299 97.0536C297.573 97.2588 298.052 96.9167 298.257 96.3693C298.736 95.0691 294.014 89.4581 293.33 90.5529Z" fill="#003399"/>
<path d="M207.995 263.949C205.463 264.839 202.52 266.276 201.494 267.097L199.646 268.534L202.041 268.055C207.105 267.028 209.569 266.07 211.758 264.223C214.496 261.896 214.017 261.896 207.995 263.949Z" fill="#003399"/>
<path d="M173.299 272.434C173.299 273.324 179.664 274.076 182.127 273.529C186.37 272.639 184.933 271.818 179.185 271.818C175.968 271.818 173.299 272.092 173.299 272.434Z" fill="#003399"/>
<path d="M108.22 297.137C109.11 297.889 110.273 298.505 110.889 298.505C112.189 298.505 111.915 298.3 108.973 296.863L106.578 295.7L108.22 297.137Z" fill="#003399"/>
</svg>
