<?xml version="1.0" standalone="no"?>
<!DOCTYPE svg PUBLIC "-//W3C//DTD SVG 20010904//EN"
 "http://www.w3.org/TR/2001/REC-SVG-20010904/DTD/svg10.dtd">
<svg version="1.0" xmlns="http://www.w3.org/2000/svg"
 width="700.000000pt" height="700.000000pt" viewBox="0 0 700.000000 700.000000"
 preserveAspectRatio="xMidYMid meet">
<metadata>
Created by potrace 1.14, written by Peter Selinger 2001-2017
</metadata>
<g transform="translate(0.000000,700.000000) scale(0.100000,-0.100000)"
fill="#000000" stroke="none">
<path d="M2950 6441 c-19 -11 -84 -26 -143 -35 -77 -12 -135 -27 -200 -55 -51
-22 -119 -46 -152 -55 -168 -43 -426 -176 -752 -388 -83 -54 -154 -98 -158
-98 -3 0 -1 9 5 21 23 42 0 29 -102 -59 -129 -111 -295 -283 -371 -384 -195
-261 -355 -621 -411 -928 -27 -145 -86 -617 -112 -895 -21 -227 -15 -517 14
-623 55 -199 161 -345 375 -520 92 -75 119 -89 203 -102 117 -20 233 -17 278
5 64 31 157 126 204 208 68 119 93 200 93 310 0 119 -21 180 -122 347 -99 163
-108 181 -119 241 -6 30 -22 66 -40 89 -22 28 -30 48 -30 78 0 22 -12 103 -27
179 -19 97 -27 172 -27 253 -1 127 9 166 66 247 24 36 32 61 39 123 5 43 14
91 20 107 11 29 62 88 91 104 15 8 16 3 11 -44 l-5 -53 40 4 40 4 -28 -80
c-53 -150 -65 -327 -27 -401 13 -25 28 -46 34 -48 6 -2 15 24 22 64 30 170 31
172 76 223 58 65 83 111 145 260 74 178 114 250 176 318 55 61 257 231 422
355 l92 69 0 49 c0 41 3 49 23 54 12 4 83 38 157 75 149 75 218 94 380 105
221 15 349 27 408 41 49 11 79 12 130 4 37 -5 150 -14 252 -20 205 -10 200
-11 236 56 l19 36 -23 18 c-12 10 -66 28 -120 40 -151 34 -158 38 -60 39 95 1
362 -30 467 -54 35 -9 101 -34 145 -57 69 -35 91 -41 145 -42 39 -1 66 3 68
10 6 17 -332 225 -407 251 -70 23 -336 92 -476 123 -72 15 -86 16 -90 4 -2 -8
-6 -20 -8 -28 -3 -10 -40 -15 -153 -20 -226 -10 -402 -34 -573 -78 -216 -56
-208 -54 -192 -36 32 39 158 89 287 113 177 34 177 34 169 47 -10 17 -232 3
-344 -21 -100 -22 -205 -27 -230 -11 -12 7 -11 10 5 16 44 15 101 43 120 58
19 15 18 15 -27 16 -64 0 -173 -24 -295 -65 -116 -40 -136 -43 -131 -17 5 27
139 87 278 125 69 19 143 43 165 54 47 24 139 119 130 133 -3 6 -22 10 -41 10
-24 0 -34 5 -34 15 0 17 56 55 80 55 8 0 22 5 30 10 12 8 10 14 -15 40 -33 35
-47 36 -95 11z m728 -647 c30 -8 28 -19 -7 -33 -40 -17 -105 -11 -109 11 -4
23 62 36 116 22z m-2468 -383 c0 -22 -63 -77 -68 -60 -5 14 40 79 56 79 6 0
12 -9 12 -19z"/>
<path d="M3900 6440 c0 -23 89 -44 108 -26 4 4 -2 14 -12 22 -22 16 -96 19
-96 4z"/>
<path d="M3831 6301 c-41 -26 326 -101 499 -101 44 0 80 4 80 9 0 18 -270 72
-459 91 -121 12 -103 12 -120 1z"/>
<path d="M4884 5548 c-5 -7 6 -22 27 -37 64 -49 89 -78 89 -108 0 -16 9 -46
21 -67 11 -21 18 -41 15 -44 -9 -8 -51 13 -148 75 -49 30 -94 53 -100 51 -8
-3 11 -28 45 -62 41 -41 56 -63 52 -75 -23 -59 -21 -63 79 -155 53 -48 106
-102 118 -119 l23 -32 -35 21 c-19 12 -98 61 -175 108 -452 280 -962 456
-1253 431 -184 -16 -488 -74 -558 -107 -36 -17 -87 -58 -72 -58 3 0 82 16 175
35 356 73 678 69 935 -11 159 -50 343 -135 602 -279 310 -172 326 -185 491
-404 227 -301 335 -519 397 -798 19 -83 22 -129 23 -303 0 -174 -3 -222 -23
-316 -187 -923 -1088 -1687 -2102 -1785 -231 -22 -530 15 -642 79 -23 14 -32
14 -86 -2 -68 -19 -89 -16 -255 35 -54 17 -108 29 -120 27 -23 -3 -21 -5 121
-114 68 -53 37 -50 -173 16 -71 22 -134 40 -139 40 -16 0 27 -41 69 -65 45
-27 104 -49 253 -96 56 -18 102 -36 102 -40 0 -16 -182 25 -367 82 -174 54
-184 51 -109 -29 l59 -62 -59 20 c-118 41 -212 62 -231 51 -16 -9 -2 -26 107
-132 69 -67 167 -151 218 -187 57 -41 91 -71 88 -79 -8 -20 28 -38 159 -78 66
-21 163 -59 215 -85 52 -27 115 -51 140 -55 58 -9 234 -65 226 -72 -3 -3 -43
1 -88 8 -52 9 -142 13 -243 12 -134 -3 -173 0 -242 18 -88 21 -173 54 -263 99
-88 44 -100 46 -100 16 0 -13 5 -37 10 -51 9 -24 8 -26 -12 -20 -29 9 -224
111 -260 137 -16 11 -28 28 -28 37 0 24 -9 31 -107 81 -114 58 -131 51 -55
-25 137 -138 463 -336 708 -429 121 -46 304 -91 477 -118 121 -18 184 -22 427
-22 305 0 444 11 710 60 206 38 267 57 463 150 100 48 243 111 317 141 238 97
307 142 564 371 561 501 904 1033 1041 1617 33 139 55 298 55 392 0 74 -2 83
-30 118 -40 51 -66 123 -106 302 -34 153 -49 203 -59 203 -3 0 -5 -111 -3
-247 l3 -248 -32 -125 c-51 -202 -107 -340 -129 -318 -2 3 2 59 10 124 54 439
6 936 -130 1339 -123 366 -315 697 -523 904 -94 93 -168 134 -388 215 -161 59
-177 63 -189 44z m827 -832 c97 -145 167 -317 186 -455 8 -57 -3 -50 -60 37
-67 101 -95 162 -157 337 -32 88 -65 178 -74 200 l-16 40 31 -35 c17 -19 58
-75 90 -124z m265 -669 l29 -62 0 -217 c0 -119 -3 -220 -8 -224 -4 -4 -12 -3
-17 2 -18 18 -70 417 -70 538 0 57 1 59 19 42 10 -9 32 -45 47 -79z m-3428
-2776 c146 -44 222 -75 222 -90 0 -21 -36 -11 -194 54 -219 89 -224 95 -28 36z"/>
<path d="M5430 5476 c13 -16 103 -76 113 -76 14 0 6 38 -10 52 -16 14 -83 38
-107 38 -5 0 -3 -7 4 -14z"/>
<path d="M5788 5404 c22 -38 258 -338 270 -342 28 -9 2 128 -44 228 -23 50
-27 53 -39 37 -13 -18 -18 -16 -89 32 -93 63 -113 72 -98 45z"/>
<path d="M5820 5202 c0 -14 32 -78 53 -104 19 -24 37 -23 37 3 0 22 -89 123
-90 101z"/>
<path d="M4151 1774 c-81 -27 -124 -48 -160 -75 -29 -23 -17 -24 62 -3 64 16
116 40 157 73 38 30 21 32 -59 5z"/>
<path d="M3452 1601 c-18 -11 -2 -17 69 -26 63 -8 153 10 128 26 -18 11 -180
12 -197 0z"/>
<path d="M2153 1105 c15 -14 35 -25 43 -25 24 0 16 9 -28 30 l-43 21 28 -26z"/>
</g>
</svg>
