<svg width="325" height="327" viewBox="0 0 325 327" fill="none" xmlns="http://www.w3.org/2000/svg">
<g clip-path="url(#clip0)">
<path d="M132.698 1.3054C131.434 2.12358 128.384 2.86738 124.739 3.1649C120.425 3.5368 117.524 4.35498 113.879 6.06572C111.052 7.40456 107.556 8.7434 105.994 9.04092C98.0348 10.5285 81.8189 18.7103 65.4542 29.4954C53.8501 37.1566 54.5939 36.7103 55.5609 34.9252C57.123 32.0244 56.3792 32.4706 49.9077 37.9748C31.7577 53.3714 20.4512 69.4375 12.2689 91.3053C7.5826 103.95 6.6156 109.156 2.74757 142.628C-0.227827 168.065 -0.674137 179.446 0.887948 188.743C3.19388 202.206 8.99592 210.983 23.3522 222.437C28.4848 226.603 28.6336 226.603 35.5514 227.495C46.114 228.76 47.9737 228.313 53.4038 223.627C57.0486 220.429 58.6107 218.346 61.363 212.842C64.264 206.966 64.8591 205.107 65.1566 200.346C65.6029 193.355 64.264 189.115 59.429 181.38C53.4038 171.784 51.9161 168.884 51.9161 166.429C51.9161 164.793 51.1722 163.156 49.6101 161.446C47.8993 159.437 47.453 158.396 47.8249 156.834C48.0481 155.718 47.3786 150.958 46.3372 146.123C43.4362 132.735 44.1056 125.743 48.7175 119.718C50.4284 117.487 50.8003 116.148 50.8747 112.875C50.8747 108.115 52.4368 104.694 55.5609 102.537L57.7181 100.975L57.3462 104.024L56.8999 107.074L59.3546 106.553C61.5861 106.107 61.7349 106.181 61.2142 107.371C58.6107 113.991 57.7181 117.785 57.3462 123.661C57.0486 129.313 57.2718 130.727 58.462 132.884C59.2058 134.297 60.1728 135.561 60.5447 135.71C60.991 135.859 61.6605 132.958 62.1068 129.239C62.9251 123.066 63.1482 122.322 65.5285 120.09C68.2808 117.487 70.8099 113.024 74.2316 104.322C78.3228 93.9829 80.5543 90.3383 85.91 85.3549C90.4475 81.0408 103.465 70.5532 109.713 66.1648C111.796 64.6772 112.019 64.1565 111.647 61.9995C111.275 59.7681 111.498 59.4706 113.358 59.0243C114.548 58.7268 118.342 56.7929 121.838 54.859C129.425 50.4706 131.88 49.8756 148.393 48.9086C155.46 48.5367 162.675 47.7186 164.386 47.1235C166.767 46.3053 168.477 46.231 170.932 46.7516C172.792 47.1235 179.189 47.6442 185.14 47.8673L195.925 48.388L197.562 46.3053C200.984 41.9913 199.868 41.1731 188.041 38.8673C179.338 37.231 185.214 36.6359 197.339 38.0491C212.662 39.7599 217.646 40.95 222.183 43.702C226.349 46.3053 231.556 47.2723 233.416 45.9334C234.159 45.3384 234.234 44.9665 233.713 44.7434C233.267 44.5202 229.25 41.9913 224.787 39.0905C220.324 36.1896 215.266 33.2144 213.555 32.3963C209.91 30.7599 181.272 23.545 180.453 24.0657C180.156 24.2888 179.858 25.107 179.858 25.9252C179.858 27.1897 179.263 27.3384 172.792 27.3384C159.923 27.3384 145.567 29.4211 134.483 32.9913C131.434 33.9582 128.83 34.5533 128.681 34.4045C128.161 33.8839 135.45 29.5698 138.203 28.826C139.616 28.3797 143.782 27.5616 147.501 26.8921C151.146 26.2971 154.344 25.6277 154.493 25.4045C156.204 23.6938 144.451 23.9169 136.715 25.7764C130.244 27.3384 125.557 27.6359 123.028 26.669C121.912 26.2227 122.21 25.9996 124.665 25.2558C126.301 24.7351 128.458 23.6938 129.425 22.8756L131.136 21.4624L128.533 21.388C125.111 21.388 114.995 23.8426 110.457 25.7764C106.217 27.6359 104.729 27.7103 104.729 26.2971C104.729 24.6607 113.209 20.8674 120.573 19.1566C128.458 17.3715 130.541 16.3302 134.037 12.6855C137.31 9.18968 137.459 8.14836 134.483 8.59464C130.467 9.18968 132.549 5.54506 136.715 4.6525C139.393 4.05746 139.467 3.5368 137.236 1.45416C135.227 -0.479725 135.45 -0.479725 132.698 1.3054ZM172.792 37.0078C174.131 37.5285 173.982 37.7516 171.453 38.7929C168.701 39.983 165.725 39.4624 165.725 37.7516C165.725 36.4872 170.337 35.9665 172.792 37.0078ZM37.2622 57.388C37.6342 58.2805 33.6174 62.0739 32.9479 61.4045C32.5016 61.0326 35.6258 56.3466 36.2952 56.3466C36.5928 56.3466 37.0391 56.7929 37.2622 57.388Z" fill="#003399"/>
<path d="M184.321 1.15667C184.321 2.34675 187.817 3.68559 189.603 3.16493C191.239 2.64427 191.239 2.56989 189.9 1.60295C188.413 0.487246 184.321 0.189726 184.321 1.15667Z" fill="#003399"/>
<path d="M180.081 9.11531C180.974 11.7186 212.588 16.5533 212.588 14.0244C212.588 12.9087 196.744 9.78473 186.181 8.89217C181.867 8.52027 179.933 8.59465 180.081 9.11531Z" fill="#003399"/>
<path d="M237.879 50.3962C237.879 50.7681 239.366 52.107 241.226 53.3714C243.978 55.2309 244.573 56.1235 244.573 57.9086C244.573 59.1731 245.243 61.1813 246.135 62.3714C248.59 65.8673 245.689 64.9747 237.953 59.7681C232.3 55.9747 230.663 56.3466 235.275 60.4375C238.846 63.7103 238.92 63.859 238.027 66.1648C237.209 68.3962 237.284 68.6193 239.887 70.7764C244.35 74.6441 250.673 80.9664 250.301 81.3383C250.152 81.4871 247.697 80.0739 244.871 78.2144C229.994 68.2474 215.117 60.9582 199.198 55.7516C181.346 49.9499 173.089 49.5037 153.452 53.2971C143.558 55.1566 140.211 56.1235 137.98 57.6111C136.492 58.6524 135.376 59.6937 135.525 59.8425C135.748 60.0656 138.798 59.545 142.443 58.7268C154.567 55.9004 160.072 55.2309 170.932 55.2309C187.446 55.2309 196.892 57.5367 213.703 65.5698C224.415 70.702 243.383 81.4871 246.879 84.3879C249.036 86.2474 253.499 91.8259 261.161 102.388C275.443 121.95 281.915 143.892 279.609 165.239C277.526 184.355 270.31 201.908 257.591 218.793C233.49 250.85 192.355 271.974 154.047 272.049C144.079 272.049 130.392 269.52 127.714 267.14C126.747 266.247 126.152 266.322 123.4 267.363C119.904 268.702 117.449 268.33 107.407 264.908C104.506 263.867 101.903 263.421 101.605 263.718C101.233 264.09 103.242 265.95 106.143 267.958C114.325 273.536 113.432 273.76 100.266 269.594C96.3983 268.404 92.6791 267.214 92.084 266.991C91.3401 266.693 91.4145 267.065 92.4559 268.255C94.6131 270.71 99.5969 273.016 107.705 275.322C111.573 276.437 115.069 277.627 115.441 277.999C117.077 279.636 103.39 276.512 92.6791 272.867C88.7366 271.528 86.1332 271.007 86.1332 271.454C86.1332 271.9 87.6209 273.76 89.4805 275.545C91.3401 277.33 92.7534 278.743 92.6047 278.743C92.4559 278.743 90.0012 277.925 87.1746 276.958C76.3887 273.165 73.4133 273.76 78.5459 278.594C89.3317 288.71 91.712 290.793 95.8032 293.322C98.3323 294.883 100.043 296.297 99.5969 296.445C97.0678 297.264 101.01 299.198 109.936 301.429C112.614 302.098 117.003 303.958 119.681 305.594C122.359 307.156 125.334 308.495 126.375 308.495C128.607 308.495 139.095 311.47 140.062 312.437C140.509 312.883 139.988 312.958 138.575 312.66C131.21 311.247 123.326 310.652 120.722 311.396C115.664 312.735 105.696 310.652 96.7702 306.338C92.4559 304.255 88.811 302.545 88.6623 302.545C88.0672 302.545 88.3647 305.669 89.1086 307.082C89.5549 307.826 89.6293 308.495 89.3317 308.495C89.0342 308.421 85.0918 306.561 80.5543 304.181C73.934 300.76 72.3719 299.644 72.5207 298.379C72.6695 297.189 71.4049 296.297 66.3468 293.768C59.3546 290.272 58.9826 290.867 64.7103 296.594C69.7685 301.652 85.1662 311.321 96.1751 316.379C121.317 327.908 157.543 330.14 194.958 322.627C204.48 320.693 206.563 319.95 216.307 315.115C222.258 312.214 230.812 308.421 235.275 306.71C239.813 304.999 244.871 302.693 246.582 301.578C257.442 294.735 280.204 273.462 290.246 260.892C310.032 236.049 321.487 210.016 324.463 183.016C325.504 173.793 325.207 171.784 322.38 169.479C320.892 168.214 318.735 161.371 316.652 150.958C315.76 146.347 314.718 142.628 314.272 142.628C313.751 142.628 313.677 146.793 313.974 155.049C314.495 167.247 314.421 167.694 312.189 177.214C309.883 186.809 306.833 194.694 305.495 194.694C305.048 194.694 304.974 193.652 305.197 192.239C308.321 173.867 307.429 148.95 302.965 128.942C297.535 104.917 285.411 80.5202 271.798 66.1648C265.773 59.8425 262.649 57.8342 253.202 54.3384C249.483 52.9252 245.243 51.2888 243.829 50.7681C240.78 49.5037 237.879 49.3549 237.879 50.3962ZM280.576 91.1565C284.816 96.735 288.014 102.239 290.246 107.669C292.105 112.206 294.709 122.471 294.188 123.066C293.593 123.586 288.758 116.446 286.452 111.76C285.187 109.305 283.477 104.768 282.51 101.718C281.617 98.6689 279.906 94.0573 278.79 91.454C277.6 88.9251 276.782 86.8425 276.931 86.8425C277.079 86.8425 278.716 88.7763 280.576 91.1565ZM298.205 132.437C299.841 135.933 299.99 137.347 299.99 147.983C299.99 158.991 299.544 162.041 298.205 159.884C297.535 158.768 295.378 142.479 294.634 132.958C294.188 127.305 294.262 126.71 295.304 127.603C295.973 128.123 297.238 130.28 298.205 132.437ZM114.623 285.958C120.127 287.669 122.582 288.859 122.582 289.603C122.582 290.421 122.136 290.644 120.945 290.198C118.565 289.528 102.944 283.131 102.498 282.685C101.903 282.09 106.143 283.28 114.623 285.958Z" fill="#003399"/>
<path d="M267.633 53.5946C267.633 54.1152 273.955 58.578 274.625 58.578C274.848 58.578 275.071 57.9086 275.071 57.0904C275.071 56.1235 274.327 55.3053 273.211 54.859C270.31 53.7433 267.633 53.1483 267.633 53.5946Z" fill="#003399"/>
<path d="M291.138 62.4458C293.444 65.421 296.94 69.9582 298.8 72.4871C300.66 75.016 302.445 77.0987 302.817 77.1731C304.007 77.1731 303.263 71.8177 301.403 66.8342C299.544 61.8508 298.13 60.0657 298.13 62.7433C298.13 63.859 297.982 63.859 296.494 62.7433C292.7 59.9913 288.163 57.0905 287.493 57.0905C287.196 57.0905 288.758 59.545 291.138 62.4458Z" fill="#003399"/>
<path d="M289.502 69.0656C289.13 69.8094 292.403 75.3136 293.816 76.1317C294.114 76.3549 294.634 75.983 294.858 75.3879C295.378 73.9747 290.246 67.8755 289.502 69.0656Z" fill="#003399"/>
<path d="M196.744 257.545C193.991 258.512 190.793 260.074 189.677 260.966L187.669 262.528L190.272 262.008C195.777 260.892 198.455 259.85 200.835 257.842C203.81 255.313 203.29 255.313 196.744 257.545Z" fill="#003399"/>
<path d="M159.031 266.768C159.031 267.735 165.948 268.553 168.626 267.958C173.238 266.991 171.676 266.098 165.428 266.098C161.932 266.098 159.031 266.396 159.031 266.768Z" fill="#003399"/>
<path d="M88.2903 293.619C89.2573 294.437 90.5219 295.107 91.1913 295.107C92.6047 295.107 92.3071 294.883 89.1086 293.322L86.5051 292.057L88.2903 293.619Z" fill="#003399"/>
<path d="M147.436 87.4284C146.858 87.6757 146.39 88.0329 146.39 88.2252C146.39 88.4176 147.051 89.022 147.849 89.5441C150.435 91.1926 151.894 92.951 152.279 94.9018C152.912 98.3362 146.996 111.03 139.373 122.542C136.594 126.746 134.035 129.851 128.697 135.675C124.459 140.264 124.074 141.198 127.266 139.302C133.099 135.785 143.446 124.933 151.013 114.382L152.719 112.019L154.012 112.404C157.287 113.42 159.241 113.668 163.313 113.668C171.348 113.64 179.631 112.459 200.599 108.392C204.452 107.65 210.203 106.524 213.367 105.919C216.504 105.315 219.641 104.573 220.301 104.298C221.402 103.804 221.512 103.666 221.512 102.787C221.512 101.001 219.256 99.3253 215.568 98.3637C212.597 97.5944 211.606 97.7867 205.002 100.424C197.545 103.392 188.712 106.112 181.199 107.705C174.128 109.217 169.257 109.794 163.423 109.794C159.654 109.794 158.883 109.711 157.232 109.162C156.214 108.804 155.333 108.392 155.278 108.227C155.223 108.063 156.929 105.315 159.048 102.1C163.368 95.6161 163.836 94.7369 163.478 93.7478C162.845 92.0718 158.002 89.0495 153.71 87.6757C151.261 86.8515 149.004 86.7965 147.436 87.4284Z" fill="#003399"/>
<path d="M94.0525 93.7203C93.9149 93.8302 93.8324 93.9951 93.8324 94.105C93.8324 94.2149 95.5385 95.4238 97.6298 96.7976C102.115 99.7649 104.592 101.771 109.93 106.799C114.305 110.947 115.488 111.717 117.525 111.744C120.111 111.799 121.377 109.958 120.827 106.936C120.414 104.573 119.533 102.952 117.635 101.111C114.993 98.5011 109.655 96.2206 102.225 94.5171C99.0882 93.7753 94.4103 93.3357 94.0525 93.7203Z" fill="#003399"/>
<path d="M206.901 126.389C206.378 126.581 205.112 127.048 204.039 127.433C200.104 128.862 194.545 130.098 185.877 131.444C170.688 133.862 156.957 135.401 155.113 134.934C154.7 134.851 153.435 133.972 152.251 132.983C150.133 131.224 147.904 130.098 146.528 130.098C146.143 130.098 145.84 130.208 145.84 130.345C145.84 130.483 146.225 131.746 146.72 133.175C147.573 135.675 147.601 135.84 147.601 140.264C147.573 145.374 147.051 149.441 145.29 158.123C144.189 163.563 142.125 171.531 141.712 171.943C141.437 172.245 131.971 173.592 125.917 174.224C118.02 175.02 116.149 174.636 111.498 171.256C110.233 170.35 109.104 169.718 108.967 169.828C108.857 169.965 108.692 170.514 108.582 171.064C108.031 174.169 115.516 182.301 118.928 182.301C119.313 182.301 120.084 182.109 120.634 181.889C122.918 180.928 139.318 177.081 139.676 177.411C139.731 177.466 139.126 179.252 138.3 181.367C134.53 191.094 131.751 196.039 128.394 198.952C126.303 200.737 125.89 201.672 126.275 203.787C126.633 205.903 127.568 207.826 128.394 208.183C128.917 208.431 129.44 208.321 131.173 207.634C135.081 206.123 136.181 205.875 140.226 205.738C145.73 205.518 151.811 206.205 160.974 208.018C171.211 210.079 181.805 212.992 191.188 216.316C195.453 217.827 195.261 217.388 193.335 221.454C191.078 226.125 189.95 227.087 186.648 227.087C184.584 227.087 182.328 226.619 179.053 225.548C177.787 225.108 176.797 224.916 176.632 225.081C176.494 225.218 177.237 226.4 178.448 227.911C180.429 230.411 181.007 231.4 183.428 236.648C184.639 239.341 185.355 240 186.978 240C189.124 240 190.665 239.231 192.784 237.143C195.068 234.862 197.104 231.565 200.351 224.943C201.535 222.498 202.635 220.492 202.745 220.492C203.213 220.492 213.642 224.779 216.752 226.262C218.595 227.141 221.952 228.982 224.209 230.356C228.694 233.049 230.373 233.681 231.666 233.131C234.088 232.142 232.987 227.993 229.245 224.009C226.41 220.987 224.209 219.97 212.019 216.069C208.249 214.86 205.002 213.843 204.837 213.761C204.617 213.706 204.974 211.865 205.855 208.211C207.313 202.194 208.607 195.545 211.166 180.873C212.129 175.46 212.982 170.954 213.092 170.844C213.725 170.212 227.236 170.927 234.886 171.998C239.756 172.685 241.215 172.548 242.398 171.284C244.517 169.003 240.774 165.459 234.941 164.277C232.794 163.838 232.271 163.81 229.437 164.14C223.769 164.8 221.677 164.964 217.742 164.964C215.568 164.992 213.807 164.937 213.807 164.882C213.807 164.332 215.238 147.71 215.458 145.759C215.679 143.946 216.174 141.94 217.137 139.165C217.88 136.967 218.485 134.824 218.485 134.412C218.485 133.258 216.422 131.252 212.652 128.697C208.909 126.169 208.249 125.894 206.901 126.389ZM205.717 133.697C206.433 133.89 207.176 134.302 207.478 134.714C208.524 136.033 208.662 137.269 208.304 143.149C207.754 152.985 206.598 165.157 206.213 165.541C205.827 165.871 180.842 167.575 180.539 167.3C180.457 167.245 180.677 165.431 181.007 163.261C182.08 156.31 183.208 148.424 183.511 145.924C183.951 142.325 183.786 142.05 179.026 138.505C177.677 137.516 176.632 136.692 176.687 136.665C176.934 136.61 203.543 133.45 203.984 133.422C204.259 133.422 205.029 133.532 205.717 133.697ZM170.633 138.341C172.449 139.522 174.375 141.665 175.228 143.506C175.944 144.99 175.971 145.264 175.944 149.193C175.916 153.04 175.201 159.717 174.1 166.228L173.77 168.152L167.716 169.003C159.901 170.13 148.619 171.449 148.427 171.229C148.344 171.146 149.252 167.135 150.463 162.327C152.444 154.524 153.352 149.963 154.453 142.462C154.81 140.126 154.81 140.126 155.774 139.797C158.14 139.027 165.625 137.709 168.652 137.544C169.009 137.544 169.917 137.901 170.633 138.341ZM205.827 171.146C205.827 172.795 203.488 187.934 202.36 193.566C201.425 198.127 198.563 209.447 197.71 211.893C197.627 212.14 197.297 212.14 196.279 211.81C191.711 210.381 187.281 209.2 179.273 207.277C174.293 206.068 170.165 205.051 170.138 204.996C170.083 204.941 170.66 203.265 171.403 201.232C174.045 194.006 175.999 187.11 178.31 176.532C178.805 174.334 179.273 172.465 179.383 172.328C179.796 171.888 194.655 170.872 202.058 170.817C205.084 170.762 205.827 170.844 205.827 171.146ZM172.339 177.548C171.101 184.06 169.67 190.269 168.487 194.116C167.331 197.99 165.377 203.513 165.074 203.842C164.909 204.007 162.625 203.787 158.993 203.238C155.774 202.743 150.655 202.056 147.629 201.672C140.859 200.82 139.236 200.518 138.135 199.858C137.034 199.171 137.062 198.979 139.566 193.017C140.612 190.517 142.538 185.818 143.804 182.576C145.097 179.334 146.308 176.532 146.555 176.367C147.381 175.735 172.311 172.19 173.109 172.575C173.192 172.63 172.862 174.856 172.339 177.548Z" fill="#003399"/>
<path d="M82 136.802C82 137.022 83.8437 138.258 86.2101 139.604C91.9062 142.902 95.2358 145.182 99.4734 148.671C103.849 152.271 105.225 153.177 106.38 153.177C107.536 153.177 108.829 152.106 109.27 150.787C109.737 149.303 109.435 146.583 108.582 144.825C106.463 140.539 102.06 138.863 88.4665 137.242C85.9074 136.939 83.3759 136.637 82.9081 136.555C82.2201 136.417 82 136.5 82 136.802Z" fill="#003399"/>
<path d="M109.27 179.609C99.7486 205.491 95.8136 213.871 92.374 215.519C90.6404 216.344 89.6773 216.234 86.7054 214.887C85.247 214.228 83.7336 213.624 83.2933 213.514C82.6604 213.376 82.5503 213.431 82.5503 213.953C82.5503 214.283 83.8712 216.921 85.4672 219.778C91.8236 231.18 93.172 233.076 95.0982 233.323C96.5016 233.488 97.7949 232.884 98.3727 231.757C98.5929 231.318 99.0882 228.872 99.4459 226.29C100.024 222.306 100.602 219.943 103.408 210.134C107.591 195.545 109.545 187.137 110.205 180.845C110.37 179.252 110.343 179.004 109.957 179.004C109.71 179.004 109.407 179.279 109.27 179.609Z" fill="#003399"/>
</g>
<defs>
<clipPath id="clip0">
<rect width="325" height="327" fill="white"/>
</clipPath>
</defs>
</svg>
